<?xml version="1.0" encoding="utf-8"?>
<!-- Generator: Adobe Illustrator 23.0.2, SVG Export Plug-In . SVG Version: 6.00 Build 0)  -->
<svg version="1.1" id="Layer_1" xmlns="http://www.w3.org/2000/svg" xmlns:xlink="http://www.w3.org/1999/xlink" x="0px" y="0px"
	 viewBox="0 0 521.2 521.2" style="enable-background:new 0 0 521.2 521.2;" xml:space="preserve">
<style type="text/css">
	.st0{fill:#191919;}
</style>
<g>
	<path class="st0" d="M306.2,254.7h-13.8v-31c0-32.5-26.5-59-59-59s-59,26.5-59,59v31h-13.8c-4.8,0-8.7,4-8.7,8.7v129
		c0,4.8,4,8.7,8.7,8.7h145.5c4.8,0,8.7-4,8.7-8.7v-129C315,258.6,311,254.7,306.2,254.7z M192,223.6c0-22.9,18.7-41.5,41.5-41.5
		s41.5,18.7,41.5,41.5v31h-83V223.6L192,223.6z M297.5,383.6h-128V272.1h128V383.6L297.5,383.6z"/>
	<path class="st0" d="M224.7,339.2v21.2c0,4.8,4,8.7,8.7,8.7c4.8,0,8.7-4,8.7-8.7v-21.2c10.6-3.6,18.2-13.6,18.2-25.4
		c0-14.8-12.1-26.9-26.9-26.9c-14.8,0-26.9,12.1-26.9,26.9C206.5,325.5,214.1,335.6,224.7,339.2z M233.5,304.3
		c5.2,0,9.4,4.2,9.4,9.4s-4.2,9.4-9.4,9.4s-9.4-4.2-9.4-9.4S228.2,304.3,233.5,304.3z"/>
	<path class="st0" d="M508.2,180.6c-4.5-5.8-11.4-9.1-18.9-9.1h-30.2V140c0-12.2-9.9-22.2-22.2-22.2H225.8c-1.4,0-2.8-0.9-3.3-2.3
		l-9.1-25.4c-3-8.5-11.2-14.3-20.3-14.3H87.2c-9.1,0-17.3,5.7-20.3,14.3l-9.1,25.4c-0.5,1.4-1.7,2.3-3.3,2.3H30
		c-12.2,0-22.2,9.9-22.2,22.2v283.2c0,12.2,9.9,22.2,22.2,22.2h406.9c11.8,0,21.5-9.2,22.2-20.9L512.7,201
		C514.4,193.9,512.7,186.4,508.2,180.6z M441.6,423.3c0,2.6-2.1,4.7-4.7,4.7H30c-2.6,0-4.7-2.1-4.7-4.7V140c0-2.6,2.1-4.7,4.7-4.7
		h24.6c8.9,0,16.8-5.6,19.7-13.9L83.4,96c0.6-1.6,2.1-2.7,3.8-2.7h105.9c1.7,0,3.3,1,3.8,2.7l9.1,25.4l0,0
		c2.9,8.3,10.8,13.9,19.7,13.9h211.2c2.6,0,4.7,2.1,4.7,4.7L441.6,423.3L441.6,423.3z M495.6,196.9l-36.5,152.4V189h30.2
		c2.8,0,4.4,1.5,5.1,2.4S496.3,194.3,495.6,196.9z"/>
</g>
</svg>
