<?xml version="1.0" encoding="utf-8"?>
<!-- Generator: Adobe Illustrator 23.0.2, SVG Export Plug-In . SVG Version: 6.00 Build 0)  -->
<svg version="1.1" id="Layer_1" xmlns="http://www.w3.org/2000/svg" xmlns:xlink="http://www.w3.org/1999/xlink" x="0px" y="0px"
	 viewBox="0 0 521.2 521.2" style="enable-background:new 0 0 521.2 521.2;" xml:space="preserve">
<style type="text/css">
	.st0{fill:#191919;}
</style>
<g>
	<path class="st0" d="M324.1,291.1H337V304h-12.9V291.1z"/>
	<path class="st0" d="M349.8,291.1h12.9V304h-12.9V291.1z"/>
	<path class="st0" d="M375.6,291.1h12.9V304h-12.9V291.1z"/>
	<path class="st0" d="M414.2,284.6h12.9v25.7h-12.9V284.6z"/>
	<path class="st0" d="M440,284.6h12.9v25.7H440V284.6z"/>
	<path class="st0" d="M465.7,284.6h12.9v25.7h-12.9V284.6z"/>
	<path class="st0" d="M491.5,194.5H311.2c-7.1,0-12.9,5.8-12.9,12.9V246c0,7.1,5.8,12.9,12.9,12.9h6.4v6.4h-6.4
		c-7.1,0-12.9,5.8-12.9,12.9v38.6c0,7.1,5.8,12.9,12.9,12.9h6.4v12.9c0,3.6,2.9,6.4,6.4,6.4h25.7c3.6,0,6.4-2.9,6.4-6.4v-12.9h90.1
		v12.9c0,3.6,2.9,6.4,6.4,6.4h25.7c3.6,0,6.4-2.9,6.4-6.4v-12.9h6.4c7.1,0,12.9-5.8,12.9-12.9v-38.6c0-7.1-5.8-12.9-12.9-12.9H485
		v-6.4h6.4c7.1,0,12.9-5.8,12.9-12.9v-38.6C504.3,200.3,498.6,194.5,491.5,194.5z M330.5,258.9h12.9v6.4h-12.9V258.9z M356.3,265.3
		v-6.4h90.1v6.4H356.3z M343.4,336.1h-12.9v-6.4h12.9V336.1z M472.2,336.1h-12.9v-6.4h12.9V336.1z M491.5,316.8H311.2v-38.6h180.2
		L491.5,316.8L491.5,316.8z M472.2,265.3h-12.9v-6.4h12.9V265.3z M491.5,246H311.2v-38.6h180.2L491.5,246L491.5,246z"/>
	<path class="st0" d="M324.1,220.2H337v12.9h-12.9V220.2z"/>
	<path class="st0" d="M349.8,220.2h12.9v12.9h-12.9V220.2z"/>
	<path class="st0" d="M375.6,220.2h12.9v12.9h-12.9V220.2z"/>
	<path class="st0" d="M414.2,213.8h12.9v25.7h-12.9V213.8z"/>
	<path class="st0" d="M440,213.8h12.9v25.7H440V213.8z"/>
	<path class="st0" d="M465.7,213.8h12.9v25.7h-12.9V213.8z"/>
	<path class="st0" d="M152,105.1H36.1c-10.7,0-19.3,8.6-19.3,19.3v90.1c0,10.7,8.6,19.3,19.3,19.3H152c10.7,0,19.3-8.6,19.3-19.3
		v-90.1C171.3,113.8,162.7,105.1,152,105.1z M36.1,118H152c3.6,0,6.4,2.9,6.4,6.4v6.4H29.7v-6.4C29.7,120.9,32.6,118,36.1,118z
		 M152,221H36.1c-3.6,0-6.4-2.9-6.4-6.4v-70.8h128.7v70.8C158.5,218.1,155.6,221,152,221z"/>
	<path class="st0" d="M87.6,169.5h12.9v12.9H87.6V169.5z"/>
	<path class="st0" d="M61.9,169.5h12.9v12.9H61.9V169.5z"/>
	<path class="st0" d="M113.4,169.5h12.9v12.9h-12.9V169.5z"/>
	<path class="st0" d="M152,287.3H36.1c-10.7,0-19.3,8.6-19.3,19.3v90.1c0,10.7,8.6,19.3,19.3,19.3H152c10.7,0,19.3-8.6,19.3-19.3
		v-90.1C171.3,296,162.7,287.3,152,287.3z M36.1,300.2H152c3.6,0,6.4,2.9,6.4,6.4v6.4H29.7v-6.4C29.7,303.1,32.6,300.2,36.1,300.2z
		 M152,403.2H36.1c-3.6,0-6.4-2.9-6.4-6.4V326h128.7v70.8C158.5,400.3,155.6,403.2,152,403.2z"/>
	<path class="st0" d="M87.6,351.7h12.9v12.9H87.6V351.7z"/>
	<path class="st0" d="M61.9,351.7h12.9v12.9H61.9V351.7z"/>
	<path class="st0" d="M113.4,351.7h12.9v12.9h-12.9V351.7z"/>
	<path class="st0" d="M232,175.9v180.2h-32.2V369h38.6c3.6,0,6.4-2.9,6.4-6.4v-90.1H277v-12.9h-32.2v-90.1c0-3.6-2.9-6.4-6.4-6.4
		h-38.6V176H232V175.9z"/>
</g>
</svg>
