<?xml version="1.0" encoding="utf-8"?>
<!-- Generator: Adobe Illustrator 23.0.2, SVG Export Plug-In . SVG Version: 6.00 Build 0)  -->
<svg version="1.1" id="Layer_1" xmlns="http://www.w3.org/2000/svg" xmlns:xlink="http://www.w3.org/1999/xlink" x="0px" y="0px"
	 viewBox="0 0 521.2 521.2" style="enable-background:new 0 0 521.2 521.2;" xml:space="preserve">
<style type="text/css">
	.st0{fill:#191919;}
</style>
<g>
	<path class="st0" d="M451.6,156.5c0-38.6-31-69.6-69.6-69.6h-26C351.6,38,310.3,0,260.9,0s-90.8,37.5-95.1,87h-26.6
		c-38.6,0-69.6,31-69.6,69.6s31,69.6,69.6,69.6h95.7v-17.4h-95.7c-28.8,0-52.2-23.4-52.2-52.2s23.4-52.2,52.2-52.2h43.5v-8.7
		c0-42.9,34.8-78.3,78.3-78.3c42.9,0,78.3,34.8,78.3,78.3v8.7h43.5c28.8,0,52.2,23.4,52.2,52.2s-23.4,52.2-52.2,52.2h-95.7v17.4
		h95.7C420.6,226.1,451.6,195.1,451.6,156.5z"/>
	<path class="st0" d="M416.8,495.1V347.8c0-14.1-11.4-26.1-26.1-26.1h-17.4v-19c11.4-3.8,18.5-15.2,17.4-27.2
		c-1.6-12-10.9-21.7-22.8-22.8c-12-1.1-23.4,6-27.2,17.4h-71.2V160.3l20.1,20.1l12.5-12.5l-40.8-40.8l-40.8,40.8l12.5,12.5
		l20.1-20.1v109.2h-71.2c-3.8-11.4-15.2-18.5-27.2-17.4c-12,1.6-21.7,10.9-22.8,22.8s6,23.4,17.4,27.2v27.7h-52
		c-14.1,0-26.1,11.4-26.1,26.1v104.3c0,14.1,11.4,26.1,26.1,26.1h52.2v17.4h-27.2v17.4h69.6v-17.4h-26.1v-17.4H218
		c14.1,0,26.1-11.4,26.1-26.1V356c0-14.1-11.4-26.1-26.1-26.1h-52.2v-27.7c7.6-2.7,13-8.2,15.8-15.8h159.2c2.7,7.6,8.2,13,15.8,15.8
		v19h-52.2c-14.1,0-26.1,11.4-26.1,26.1v147.3c0,14.1,11.4,26.1,26.1,26.1h87C405.4,521.2,416.8,509.8,416.8,495.1z M226.1,460.3
		c0,4.9-3.8,8.7-8.7,8.7H95.6c-4.9,0-8.7-3.8-8.7-8.7v-17.4h138.6v17.4H226.1z M217.4,347.8c4.9,0,8.7,3.8,8.7,8.7v69.6H87.5v-69.6
		c0-4.9,3.8-8.7,8.7-8.7H217.4z M156.5,287c-4.9,0-8.7-3.8-8.7-8.7c0-4.9,3.8-8.7,8.7-8.7s8.7,3.8,8.7,8.7S161.4,287,156.5,287z
		 M365.2,269.6c4.9,0,8.7,3.8,8.7,8.7c0,4.9-3.8,8.7-8.7,8.7c-4.9,0-8.7-3.8-8.7-8.7S360.3,269.6,365.2,269.6z M295.6,347.8
		c0-4.9,3.8-8.7,8.7-8.7h87c4.9,0,8.7,3.8,8.7,8.7v113H295.6V347.8L295.6,347.8z M295.6,495.1v-17.4h103.8v17.4
		c0,4.9-3.8,8.7-8.7,8.7h-87C299.4,503.8,295.6,500,295.6,495.1z"/>
</g>
</svg>
