<?xml version="1.0" encoding="utf-8"?>
<!-- Generator: Adobe Illustrator 23.0.2, SVG Export Plug-In . SVG Version: 6.00 Build 0)  -->
<svg version="1.1" id="Layer_1" xmlns="http://www.w3.org/2000/svg" xmlns:xlink="http://www.w3.org/1999/xlink" x="0px" y="0px"
	 viewBox="0 0 521.2 521.2" style="enable-background:new 0 0 521.2 521.2;" xml:space="preserve">
<style type="text/css">
	.st0{fill:#191919;}
</style>
<g>
	<g>
		<g>
			<path class="st0" d="M489.7,113.9l-82.4-82.4c-1.7-1.6-4-2.6-6.4-2.6H132c-14.9,0-27.2,12.2-27.2,27.2v17.3
				c-44.4,17.5-76,60.8-76,111.4c0,5,4.1,9.1,9.1,9.1h110.5c5,0,9.1-4.1,9.1-9.1V74.1c0-5-4.1-9.1-9.1-9.1c-8.7,0-17.2,0.9-25.4,2.7
				V56c0-5,4.1-9.1,9.1-9.1h259.8v55.2c0,14.9,12.2,27.2,27.2,27.2h55.2v335.9c0,5-4.1,9.1-9.1,9.1H132c-5,0-9.1-4.1-9.1-9.1v-77.6
				c0-5-4.1-9.1-9.1-9.1s-9.1,4.1-9.1,9.1v77.6c0,14.9,12.2,27.2,27.2,27.2H465c14.9,0,27.2-12.2,27.2-27.2V120.3
				C492.3,117.8,491.3,115.6,489.7,113.9z M139.4,83.5v92H47.3C51.6,126.8,90.6,87.9,139.4,83.5z M419,111.2c-5,0-9.1-4.1-9.1-9.1
				V59.7l51.5,51.5H419z"/>
		</g>
	</g>
	<g>
		<g>
			<path class="st0" d="M120.4,348.3c-1.7-1.7-4-2.6-6.4-2.6s-4.7,1-6.4,2.6c-1.7,1.7-2.6,4-2.6,6.4s1,4.7,2.6,6.4
				c1.7,1.7,4,2.6,6.4,2.6s4.7-1,6.4-2.6c1.7-1.7,2.6-4,2.6-6.4S122,350,120.4,348.3z"/>
		</g>
	</g>
	<g>
		<g>
			<path class="st0" d="M180.8,97.5c-5,0-9.1,4.1-9.1,9.1V208H70.3c-5,0-9.1,4.1-9.1,9.1c0,65.9,53.7,119.6,119.6,119.6
				S300.4,283,300.4,217.1S246.7,97.5,180.8,97.5z M189.9,116c21.2,1.9,40.6,10.3,55.9,23.3l-55.9,55.9V116z M180.8,318.5
				c-52.9,0-96.5-40.6-101-92.4h101c2.5,0,4.8-1,6.4-2.6l0,0l71.4-71.4c14.8,17.7,23.6,40.3,23.6,65
				C282.3,273,236.8,318.5,180.8,318.5z"/>
		</g>
	</g>
	<g>
		<g>
			<path class="st0" d="M425.4,314.6c-14.9,0-27.2,12.2-27.2,27.2c0,3.7,0.7,7.3,2.2,10.6l-52.1,52.1c-3.6-1.7-7.6-2.7-11.9-2.7
				c-4.2,0-8.1,0.9-11.6,2.6l-34.7-34.7c1.2-3.1,1.9-6.4,1.9-9.9c0-14.9-12.2-27.2-27.2-27.2c-14.9,0-27.2,12.2-27.2,27.2
				c0,4.1,0.9,7.9,2.5,11.4l-33.2,33.2c-3.5-1.7-7.5-2.6-11.7-2.6c-14.9,0-27.2,12.2-27.2,27.2s12.2,27.2,27.2,27.2
				c14.9,0,27.2-12.2,27.2-27.2c0-4.2-1-8.1-2.6-11.8l33-33c3.6,1.8,7.7,2.8,12,2.8c4.9,0,9.4-1.3,13.4-3.5l33.7,33.7
				c-1.7,3.5-2.7,7.6-2.7,11.8c0,14.9,12.2,27.2,27.2,27.2s27.2-12.2,27.2-27.2c0-4.2-0.9-8.1-2.6-11.6l51.7-51.7
				c3.8,2.1,8.1,3.2,12.8,3.2c14.9,0,27.2-12.2,27.2-27.2C452.7,326.7,440.4,314.6,425.4,314.6z M195.3,437.9c-5,0-9.1-4.1-9.1-9.1
				s4.1-9.1,9.1-9.1c2.4,0,4.6,1,6.2,2.5l0.1,0.1l0.1,0.1c1.5,1.6,2.5,3.8,2.5,6.2C204.4,434,200.3,437.9,195.3,437.9z M264.8,368.9
				c-5,0-9.1-4.1-9.1-9.1s4.1-9.1,9.1-9.1s9.1,4.1,9.1,9.1S269.8,368.9,264.8,368.9z M336.4,437.9c-5,0-9.1-4.1-9.1-9.1
				s4.1-9.1,9.1-9.1s9.1,4.1,9.1,9.1C345.4,433.9,341.4,437.9,336.4,437.9z M425.4,350.8c-5,0-9.1-4.1-9.1-9.1s4.1-9.1,9.1-9.1
				s9.1,4.1,9.1,9.1C434.5,346.7,430.4,350.8,425.4,350.8z"/>
		</g>
	</g>
	<g>
		<g>
			<path class="st0" d="M380.2,241.6h-47.8c-5,0-9.1,4.1-9.1,9.1s4.1,9.1,9.1,9.1h47.8c5,0,9.1-4.1,9.1-9.1
				C389.2,245.7,385.2,241.6,380.2,241.6z"/>
		</g>
	</g>
	<g>
		<g>
			<path class="st0" d="M427.8,244.2c-1.7-1.7-4-2.6-6.4-2.6s-4.7,1-6.4,2.6c-1.7,1.7-2.6,4-2.6,6.4s1,4.7,2.6,6.4
				c1.7,1.7,4,2.6,6.4,2.6s4.7-1,6.4-2.6c1.7-1.7,2.6-4,2.6-6.4S429.4,245.9,427.8,244.2z"/>
		</g>
	</g>
	<g>
		<g>
			<path class="st0" d="M443,154.7H332.4c-5,0-9.1,4.1-9.1,9.1s4.1,9.1,9.1,9.1H443c5,0,9.1-4.1,9.1-9.1S448,154.7,443,154.7z"/>
		</g>
	</g>
	<g>
		<g>
			<path class="st0" d="M443,198.1H332.4c-5,0-9.1,4.1-9.1,9.1s4.1,9.1,9.1,9.1H443c5,0,9.1-4.1,9.1-9.1
				C452.1,202.2,448,198.1,443,198.1z"/>
		</g>
	</g>
</g>
</svg>
