<?xml version="1.0" encoding="utf-8"?>
<!-- Generator: Adobe Illustrator 23.0.2, SVG Export Plug-In . SVG Version: 6.00 Build 0)  -->
<svg version="1.1" id="Layer_1" xmlns="http://www.w3.org/2000/svg" xmlns:xlink="http://www.w3.org/1999/xlink" x="0px" y="0px"
	 viewBox="0 0 521.2 521.2" style="enable-background:new 0 0 521.2 521.2;" xml:space="preserve">
<style type="text/css">
	.st0{fill:#191919;}
</style>
<g>
	<g>
		<g>
			<path class="st0" d="M513.6,253h-123v-17.4h33.2c4.2,0,7.6-3.4,7.6-7.6c0-4.2-3.4-7.6-7.6-7.6h-33.2V203h23
				c8.6,0,16.6-3.3,22.7-9.4l50.2-50.2c3.3,1.6,6.9,2.5,10.7,2.5c6.4,0,12.4-2.5,16.9-7s7-10.5,7-16.9s-2.5-12.4-7-16.9
				s-10.5-7-16.9-7s-12.4,2.5-16.9,7s-7,10.5-7,16.9c0,3.8,0.9,7.4,2.5,10.7l-50.2,50.2c-3.2,3.2-7.4,4.9-11.9,4.9h-23V171
				c0-22.2-18.1-40.3-40.3-40.3h-16.8V63c9.5-3.2,16.3-12.2,16.3-22.7c0-13.2-10.7-24-24-24s-24,10.7-24,24
				c0,10.5,6.8,19.5,16.3,22.7v67.6h-17.4V97.4c0-4.2-3.4-7.6-7.6-7.6s-7.6,3.4-7.6,7.6v33.2h-17.4V7.6c0-4.2-3.4-7.6-7.6-7.6
				S253,3.4,253,7.6v122.9h-17.4V97.4c0-4.2-3.4-7.6-7.6-7.6c-4.2,0-7.6,3.4-7.6,7.6v33.2H203v-23c0-8.6-3.3-16.6-9.4-22.7
				l-50.2-50.2c4.4-9,3-20.1-4.5-27.6c-9.3-9.3-24.5-9.3-33.9,0c-9.3,9.3-9.3,24.5,0,33.9c4.7,4.7,10.8,7,16.9,7
				c3.7,0,7.3-0.8,10.6-2.5l50.2,50.2c3.2,3.2,4.9,7.4,4.9,11.9v23h-16.8c-3.4,0-6.8,0.4-10.1,1.3c-4.1,1.1-6.5,5.2-5.5,9.3
				s5.2,6.5,9.3,5.5c2-0.5,4.1-0.8,6.3-0.8h179.5c13.8,0,25,11.2,25,25v179.5c0,2.1-0.3,4.2-0.8,6.3c-1,4.1,1.4,8.2,5.5,9.3
				c0.6,0.2,1.3,0.2,1.9,0.2c3.4,0,6.5-2.3,7.4-5.7c0.8-3.3,1.3-6.7,1.3-10.1v-16.8h67.6c3.2,9.5,12.2,16.3,22.7,16.3
				c13.2,0,24-10.7,24-24s-10.7-24-24-24c-10.5,0-19.5,6.8-22.7,16.3h-67.6v-17.4h33.2c4.2,0,7.6-3.4,7.6-7.6s-3.4-7.6-7.6-7.6
				h-33.2v-17.4h122.9c4.2,0,7.6-3.4,7.6-7.6S517.8,253,513.6,253z M491.1,115.7c1.6-1.6,3.8-2.5,6.1-2.5s4.5,0.9,6.1,2.5
				s2.5,3.8,2.5,6.1c0,2.3-0.9,4.5-2.5,6.1c-1.6,1.6-3.8,2.5-6.1,2.5s-4.5-0.9-6.1-2.5s-2.5-3.8-2.5-6.1
				C488.5,119.6,489.5,117.4,491.1,115.7z M128,30.1c-3.4,3.4-8.9,3.4-12.3,0s-3.4-8.9,0-12.3c1.7-1.7,3.9-2.5,6.1-2.5
				s4.4,0.8,6.1,2.5C131.4,21.2,131.4,26.7,128,30.1z M325.9,49c-4.8,0-8.7-3.9-8.7-8.7s3.9-8.7,8.7-8.7c4.8,0,8.7,3.9,8.7,8.7
				S330.7,49,325.9,49z M480.9,317.2c4.8,0,8.7,3.9,8.7,8.7c0,4.8-3.9,8.7-8.7,8.7c-4.8,0-8.7-3.9-8.7-8.7
				C472.2,321.1,476.1,317.2,480.9,317.2z"/>
		</g>
	</g>
	<g>
		<g>
			<path class="st0" d="M416.2,480.3c-7.5-7.5-18.6-8.9-27.6-4.5l-50.2-50.2c-3.2-3.2-4.9-7.4-4.9-11.9v-23h16.8
				c3.4,0,6.8-0.4,10.1-1.3c4.1-1.1,6.5-5.2,5.5-9.3c-1.1-4.1-5.2-6.5-9.3-5.5c-2,0.5-4.1,0.8-6.3,0.8H170.8c-13.8,0-25-11.2-25-25
				V170.8c0-2.1,0.3-4.2,0.8-6.3c1.1-4.1-1.4-8.2-5.5-9.3s-8.2,1.4-9.3,5.5c-0.8,3.3-1.3,6.7-1.3,10.1v16.8H63
				c-3.2-9.5-12.2-16.3-22.7-16.3c-13.2,0-24,10.7-24,24c0,13.2,10.7,24,24,24c10.5,0,19.5-6.8,22.7-16.3h67.6v17.4H97.4
				c-4.2,0-7.6,3.4-7.6,7.6c0,4.2,3.4,7.6,7.6,7.6h33.2V253H7.6c-4.2,0-7.6,3.4-7.6,7.6s3.4,7.6,7.6,7.6h122.9v17.4H97.4
				c-4.2,0-7.6,3.4-7.6,7.6s3.4,7.6,7.6,7.6h33.2v17.4h-23c-8.6,0-16.6,3.3-22.7,9.4l-50.2,50.2c-3.3-1.6-6.9-2.5-10.7-2.5
				c-6.4,0-12.4,2.5-16.9,7s-7,10.5-7,16.9s2.5,12.4,7,16.9s10.5,7,16.9,7s12.4-2.5,16.9-7s7-10.5,7-16.9c0-3.8-0.9-7.4-2.5-10.7
				l50.2-50.2c3.2-3.2,7.4-4.9,11.9-4.9h23v16.8c0,22.2,18.1,40.3,40.3,40.3h16.8v67.6c-9.5,3.2-16.3,12.2-16.3,22.7
				c0,13.2,10.7,24,24,24c13.2,0,24-10.7,24-24c0-10.5-6.8-19.5-16.3-22.7v-67.6h17.4v33.2c0,4.2,3.4,7.6,7.6,7.6s7.6-3.4,7.6-7.6
				v-33.2H253v122.9c0,4.2,3.4,7.6,7.6,7.6s7.6-3.4,7.6-7.6V390.6h17.4v33.2c0,4.2,3.4,7.6,7.6,7.6s7.6-3.4,7.6-7.6v-33.2h17.4v23
				c0,8.6,3.3,16.6,9.4,22.7l50.2,50.2c-4.4,9-3,20.1,4.5,27.6c4.7,4.7,10.8,7,16.9,7s12.3-2.3,16.9-7
				C425.6,504.8,425.6,489.6,416.2,480.3z M40.3,204c-4.8,0-8.7-3.9-8.7-8.7s3.9-8.7,8.7-8.7s8.7,3.9,8.7,8.7
				C48.9,200.1,45.1,204,40.3,204z M30.1,405.5c-1.6,1.6-3.8,2.5-6.1,2.5s-4.5-0.9-6.1-2.5s-2.5-3.8-2.5-6.1s0.9-4.5,2.5-6.1
				s3.8-2.5,6.1-2.5s4.5,0.9,6.1,2.5s2.5,3.8,2.5,6.1S31.7,403.8,30.1,405.5z M204,480.9c0,4.8-3.9,8.7-8.7,8.7s-8.7-3.9-8.7-8.7
				c0-4.8,3.9-8.7,8.7-8.7C200.1,472.2,204,476.1,204,480.9z M405.5,503.4c-3.4,3.4-8.9,3.4-12.3,0s-3.4-8.9,0-12.3
				c1.7-1.7,3.9-2.5,6.1-2.5s4.4,0.8,6.1,2.5C408.8,494.5,408.8,500,405.5,503.4z"/>
		</g>
	</g>
	<g>
		<g>
			<path class="st0" d="M341.7,240.2c0-16.3-11.9-30.2-28.3-34.7c0.5-2,0.8-4,0.8-6.1c0-15.5-13.7-28-30.6-28
				c-9.1,0-17.3,3.7-23,9.5c-5.6-5.8-13.8-9.5-23-9.5c-16.9,0-30.6,12.6-30.6,28c0,2.1,0.3,4.2,0.8,6.1
				c-16.3,4.5-28.3,18.3-28.3,34.7c0,8,2.8,15.5,8,21.7c-5.1,6.6-8,14.6-8,23.2c0,13,6.9,25.1,18.4,32.6l0,0
				c0,17.7,15.8,32.1,35.2,32.1c11.1,0,21.1-4.8,27.5-12.2c6.4,7.4,16.4,12.2,27.5,12.2c18.7,0,34-13.3,35.1-30.1
				c11.3-6.6,18.4-18.1,18.4-30.5c0-9.2-3.9-17.9-10.6-24.5C337.8,258.1,341.7,249.4,341.7,240.2z M314.6,271.4
				c7.4,3.9,11.7,10.5,11.7,17.7c0,5.4-2.5,10.5-6.7,14.4c-4-7.4-11.1-13.3-20.1-16.2c-4-1.3-8.3,1-9.6,5c-1.3,4,1,8.3,5,9.6
				c7.8,2.4,13,8.8,13,15.8c0,9.3-8.9,16.8-19.9,16.8s-19.9-7.6-19.9-16.8v-49c0-9.3,8.9-16.8,19.9-16.8c4.2,0,7.6-3.4,7.6-7.6
				c0-4.2-3.4-7.6-7.6-7.6c-7.4,0-14.2,2.1-19.9,5.7v-9.8c0-4.2-3.4-7.6-7.6-7.6s-7.6,3.4-7.6,7.6V275c-2.6-1.6-5.4-2.9-8.4-3.9
				c-4-1.3-8.3,1-9.6,5s1,8.3,5,9.6c7.8,2.4,13,8.8,13,15.8v16.3c0,9.3-8.9,16.8-19.9,16.8s-19.9-7.6-19.9-16.8
				c0-4,1.7-7.9,4.8-10.9c3-3,3-7.8,0-10.8s-7.8-3-10.8,0c-1.8,1.8-3.4,3.8-4.7,5.9c-4.8-4.6-7.6-10.6-7.6-16.8
				c0-11.3,8.9-21.2,21.6-24.2c4.1-0.9,6.7-5,5.7-9.1c-0.9-4.1-5-6.7-9.1-5.7c-5.1,1.2-9.8,3.1-14,5.7c-2.7-3.4-4.2-7.4-4.2-11.5
				c0-11.5,10.9-20.8,24.3-20.9c0.1,0,0.1,0,0.2,0c1.7,0,3.5-0.6,4.9-1.8c2.9-2.5,3.5-6.7,1.5-9.8c-0.1-0.1-0.1-0.2-0.2-0.3
				l-0.1-0.1c-0.1-0.2-0.2-0.3-0.4-0.5l0,0c-1.3-1.5-2.8-4-2.8-7.3c0-7,6.9-12.8,15.3-12.8s15.3,5.7,15.3,12.8
				c0,4.2,3.4,7.6,7.6,7.6s7.6-3.4,7.6-7.6c0-7,6.9-12.8,15.3-12.8s15.3,5.7,15.3,12.8c0,1.9-0.5,3.5-1.1,4.8
				c-4.3,0.4-8.5,1.5-12.5,3.1c-3.9,1.6-5.7,6.1-4.1,10s6.1,5.7,10,4.1c3.3-1.4,6.9-2.1,10.6-2.1c0.1,0,0.1,0,0.2,0s0.1,0,0.2,0
				c13.4,0.1,24.3,9.4,24.3,20.9c0,7.2-4.4,13.8-11.7,17.7c-2.5,1.3-4.1,3.9-4.1,6.8C310.6,267.5,312.1,270.1,314.6,271.4z"/>
		</g>
	</g>
</g>
</svg>
