<?xml version="1.0" encoding="utf-8"?>
<!-- Generator: Adobe Illustrator 23.0.2, SVG Export Plug-In . SVG Version: 6.00 Build 0)  -->
<svg version="1.1" id="Layer_1" xmlns="http://www.w3.org/2000/svg" xmlns:xlink="http://www.w3.org/1999/xlink" x="0px" y="0px"
	 viewBox="0 0 102.1 66.6" style="enable-background:new 0 0 102.1 66.6;" xml:space="preserve">
<style type="text/css">
	.st0{fill:#0000FF;}
</style>
<g>
	<g>
		<circle class="st0" cx="95.4" cy="6.8" r="6.8"/>
		<path d="M97.8,55.2L77.2,34.5l10.3-10.3l0,0c1.2-1.2,2.1-2.9,2.1-4.9c0-3.7-3-6.8-6.8-6.8c-1.9,0-3.5,0.7-4.7,1.9l0,0L67.7,25
			L54.9,12.2l-0.6-0.6c-3.1-3-6.9-5.4-10.9-7c-4-1.5-8.3-2.3-12.9-2C14.1,3.4,0.8,16.7,0,33.1C-0.8,51.4,13.9,66.5,32,66.5
			c4.5,0,8.7-0.9,12.6-2.6c3.7-1.6,7.1-4,10-6.8l13-13l20.5,20.5c1.2,1.2,3,2,4.8,2C99,66.7,102,59.4,97.8,55.2z M43.9,48.7
			c-1.8,1.4-3.6,2.6-6.3,3.5c0,0-2.7,0.8-5.5,0.8c-10.2,0-18.5-8.2-18.5-18.4s8.2-18.5,18.5-18.5c3,0,5.8,0.9,5.8,0.9
			c2.5,0.8,4.4,2.1,6,3.3c6.1,4.8,12.8,12.6,14.2,14.2C56.7,36.1,50.1,43.8,43.9,48.7z"/>
	</g>
</g>
</svg>
