<?xml version="1.0" encoding="utf-8"?>
<!-- Generator: Adobe Illustrator 23.0.2, SVG Export Plug-In . SVG Version: 6.00 Build 0)  -->
<svg version="1.1" id="Layer_1" xmlns="http://www.w3.org/2000/svg" xmlns:xlink="http://www.w3.org/1999/xlink" x="0px" y="0px"
	 viewBox="0 0 250 112" style="enable-background:new 0 0 250 112;" xml:space="preserve">
<style type="text/css">
	.st0{fill:#FFFFFF;}
	.st1{fill:#FBB03B;}
	.st2{fill:#0073B1;}
</style>
<g>
	<g>
		<path class="st0" d="M123.8,52.4l-0.6-1.9c-0.8,1.5-2.4,2.4-4.3,2.4c-3.9,0-6-2.7-6-6.1V34.6c0-3.2,2.5-6.1,6.7-6.1
			s6.5,2.8,6.5,6.1V37h-4.2v-2.6c0-1.1-0.7-2.1-2.3-2.1s-2.3,1-2.3,2.2v12.5c0,1.2,0.8,2.2,2.3,2.2c1.5,0,2.3-1,2.3-2.2v-3.3h-2.3
			v-3.2h6.5v11.9H123.8z"/>
		<path class="st0" d="M128.9,52.4V29h4.4v19.6h6.5v3.9H128.9z"/>
		<path class="st0" d="M147.9,52.9c-4.1,0-6.6-2.7-6.6-6.4V34.8c0-3.7,2.6-6.4,6.6-6.4c4.1,0,6.6,2.7,6.6,6.4v11.7
			C154.6,50.3,152,52.9,147.9,52.9z M150.2,34.6c0-1.4-0.8-2.3-2.3-2.3c-1.4,0-2.2,0.9-2.2,2.3v12.2c0,1.4,0.8,2.3,2.2,2.3
			c1.4,0,2.3-0.9,2.3-2.3V34.6z"/>
		<path class="st0" d="M164.7,52.4h-7.4V29h7.3c3.2,0,5.2,1.7,5.2,5v2.5c0,2-0.8,3.5-2.8,3.9c2.1,0.6,2.9,2,2.9,4v3.1
			C169.9,50.7,167.9,52.4,164.7,52.4z M165.6,34.2c0-1.1-0.5-1.7-1.5-1.7h-2.4V39h2.2c1.1,0,1.7-0.6,1.7-1.8V34.2z M165.7,44.1
			c0-1.2-0.6-1.9-1.7-1.9h-2.3v6.6h2.5c1.1,0,1.5-0.6,1.5-1.7V44.1z"/>
		<path class="st0" d="M181,52.4l-0.8-4.6h-4.2l-0.8,4.6h-4.1l4.7-23.4h4.9l4.7,23.4H181z M178.3,35.3l-1.6,9h3L178.3,35.3z"/>
		<path class="st0" d="M187.1,52.4V29h4.4v19.6h6.5v3.9H187.1z"/>
		<path class="st0" d="M119.7,88.1c-4.2,0-6.8-2.8-6.8-6.4V70.1c0-3.6,2.6-6.4,6.8-6.4c4.2,0,6.3,2.6,6.3,6.1v2.8h-3.9v-2.8
			c0-1.4-0.8-2.3-2.4-2.3c-1.6,0-2.4,0.9-2.4,2.3V82c0,1.3,0.8,2.3,2.4,2.3c1.6,0,2.4-0.9,2.4-2.3v-2.8h3.9V82
			C126,85.5,123.8,88.1,119.7,88.1z"/>
		<path class="st0" d="M137.2,87.6l-2.7-8.1l-3,8.1h-4.3l4.8-11.8l-4.5-11.6h4.6l2.6,8.1l2.8-8.1h4.3L137,75.4l4.7,12.2H137.2z"/>
		<g>
			<path class="st0" d="M154.8,88.1c-4,0-6.5-2.4-6.5-6.1v-1.6h4v1.4c0,1.7,0.8,2.7,2.4,2.7c1.5,0,2.3-0.9,2.3-2.4
				c0-1.9-1.2-3.1-3.5-4.9c-2.4-1.7-5-4-5-7.3c0-3.4,2.2-6.3,6.4-6.3c3.7,0,6.2,2.5,6.2,6v1.5h-4v-1.4c0-1.4-0.7-2.5-2.2-2.5
				c-1.3,0-2.1,0.8-2.1,2.1c0,2,1.2,3,3.8,4.9c2.8,2.1,4.7,4.2,4.7,7.4C161.2,85.4,158.6,88.1,154.8,88.1z"/>
		</g>
		<g>
			<path class="st0" d="M170.1,88.1c-3.8,0-6.6-2.4-6.6-5.9v-18h4.4v18c0,1.4,0.8,2.1,2.2,2.1c1.4,0,2.2-0.8,2.2-2.1v-18h4.3v18
				C176.6,85.7,173.9,88.1,170.1,88.1z"/>
		</g>
		<g>
			<path class="st0" d="M193.5,87.6v-17l-0.9,5.1l-2.5,11.9h-3.3l-2.4-11.9l-0.9-5.1v17h-3.9V64.1h5.9l2.4,11.9l0.7,4.3l0.8-4.3
				l2.4-11.9h5.8v23.4H193.5z"/>
		</g>
		<g>
			<path class="st0" d="M214.6,87.6v-17l-0.9,5.1l-2.5,11.9h-3.3l-2.4-11.9l-0.9-5.1v17h-3.9V64.1h5.9L209,76l0.7,4.3l0.8-4.3
				l2.4-11.9h5.8v23.4H214.6z"/>
		</g>
		<g>
			<path class="st0" d="M221.7,87.6V64.1h4.4v23.4H221.7z"/>
		</g>
		<g>
			<path class="st0" d="M236.7,68v19.6h-4.4V68H228v-3.9h13V68H236.7z"/>
		</g>
	</g>
	<path class="st1" d="M92.4,40.3C87.3,21,25.7,13.1,13.3,28.8S23.2,100.3,43,103C62.8,105.8,97.5,59.6,92.4,40.3z"/>
	<path class="st2" d="M95.5,59C99.6,39.4,48,4.8,29.9,13.3S6.7,81.6,23.2,92.9S91.4,78.5,95.5,59z"/>
	<g>
		<path class="st0" d="M56.5,60.7c-0.2,4.8-1.5,8.4-4,10.8c-2.5,2.4-5.9,3.7-10.4,3.7c-4.7,0-8.3-1.6-10.8-4.7
			c-2.5-3.1-3.8-7.5-3.8-13.3v-7c0-5.7,1.3-10.1,3.9-13.2c2.6-3.1,6.2-4.7,10.8-4.7c4.5,0,8,1.3,10.3,3.8c2.4,2.5,3.7,6.2,4,10.9
			h-8.4c-0.1-2.9-0.5-5-1.4-6.1c-0.8-1.1-2.4-1.7-4.6-1.7c-2.3,0-3.8,0.8-4.8,2.4c-0.9,1.6-1.4,4.2-1.5,7.8v7.9c0,4.1,0.5,7,1.4,8.5
			c0.9,1.5,2.5,2.3,4.8,2.3c2.2,0,3.7-0.5,4.6-1.6c0.8-1.1,1.3-3,1.4-5.9H56.5z"/>
		<path class="st0" d="M74.8,47.3l5.6-14.3H90l-9.8,20.7l10,21h-9.8l-5.7-14.6l-5.7,14.6h-9.8l10-21l-9.8-20.7h9.6L74.8,47.3z"/>
	</g>
</g>
</svg>
