<?xml version="1.0" encoding="utf-8"?>
<!-- Generator: Adobe Illustrator 23.0.2, SVG Export Plug-In . SVG Version: 6.00 Build 0)  -->
<svg version="1.1" id="Layer_1" xmlns="http://www.w3.org/2000/svg" xmlns:xlink="http://www.w3.org/1999/xlink" x="0px" y="0px"
	 viewBox="0 0 220.9 40.1" style="enable-background:new 0 0 220.9 40.1;" xml:space="preserve">
<style type="text/css">
	.st0{fill:#FFFFFF;}
	.st1{fill:#EE1C24;}
</style>
<title>Asset 5</title>
<g>
	<g id="Layer_1-2">
		<path class="st0" d="M216.3,6.7C210.4,0.1,201.7,0,199.4,0s-8.7,0-14.2,4.4c-6.9,5.6-7.2,13.8-7.2,15.6c-0.1,5.4,2,10.6,5.8,14.4
			c5.9,5.7,13.4,5.7,15.7,5.7c2,0,11,0,16.9-6.9c3.1-3.7,4.7-8.4,4.5-13.2C221,15.2,219.4,10.5,216.3,6.7z M211.7,30
			c-4.3,5.2-10.9,5.2-12.3,5.2c-1.6,0-7.1,0-11.4-4.3c-2.8-2.9-4.3-6.8-4.2-10.9c0-1.4,0.2-7.6,5.3-11.8c2.9-2.3,6.6-3.5,10.4-3.3
			c1.6,0,8,0,12.3,5.1c2.3,2.8,3.5,6.4,3.3,10.1C215.1,23.7,214,27.2,211.7,30z"/>
		<path class="st0" d="M64.7,33.8h-2c-3-0.1-6.6-0.6-9.4-3.3c-3.8-3.6-4.1-9.2-4.2-9.9c0-0.3,0-0.5,0-0.7v-0.2
			c0.1-3.4,1.3-6.6,3.4-9.2c1.3-1.6,3.1-2.8,5-3.5c1.1-0.3,2.2-0.5,3.3-0.6c0,0,1.6-0.2,3.4-0.2h16.2V1h-15c-1.4,0-2.7,0.1-2.7,0.1
			c-1.5,0.1-3,0.4-4.5,0.7c-2.6,0.5-5.1,1.6-7.2,3.1c-2.6,1.9-4.7,4.4-6,7.3c-1,2.3-1.5,4.9-1.5,7.4c0,0.2,0,0.6,0,1.3
			c0.1,2.7,0.7,5.3,1.9,7.8c1,1.9,2.3,3.7,3.9,5.1l0.1,0.1c2.2,2,4.9,3.4,7.8,4.2c1.8,0.5,3.7,0.9,5.6,1c0.8,0,1.6,0,2.5,0h0.6h15
			v-5.2H64.7z"/>
		<rect x="56.7" y="17" class="st0" width="22" height="5.2"/>
		<polygon class="st0" points="175.1,1 139.9,1 139.9,6.2 154.6,6.2 154.6,39 160.4,39 160.4,6.2 175.1,6.2 		"/>
		<rect x="129" y="1.1" class="st0" width="5.9" height="38"/>
		<polygon class="st0" points="100.2,19.4 84.5,39 91.9,39 104,23.8 116.2,39 123.1,39 107.5,19.4 122,1.1 115,1 104,14.9 93,1 
			85.6,1.1 		"/>
		<rect y="1.1" class="st1" width="36.1" height="9.3"/>
		<rect y="15.4" class="st1" width="36.1" height="9.3"/>
		<rect y="29.2" class="st1" width="36.1" height="9.3"/>
	</g>
</g>
<rect x="-88.1" y="-38.9" class="st1" width="11.6" height="11.6"/>
</svg>
